# xmcd
#
# Track frame offsets:
# 150
# 16722
# 32933
# 53986
# 70041
# 85902
# 98710
# 116245
# 133803
# 149331
# 168746
# 183475
# 200666
# 217035
# 232434
#
# Disc length: 3342 seconds
#
# Revision: 1
# Processed by: cddbd v1.5.1PL0 Copyright (c) Steve Scherf et al.
# Submitted via: CedeCatalogueitor 2.6.0.5 http://personales.ya.com/cdcatalogueitor
#
DISCID=e90d0c0f
DTITLE=Varios - El Boom De La Rumba 4 Cd 2
DYEAR=2004
DGENRE=
TTITLE0=Alazán - Vous Voulez Dancer
TTITLE1=Bernardo - Detener El Tiempo
TTITLE2=Camela - Corazón Indomable
TTITLE3=La Húngara - Corazón Flamenco
TTITLE4=Jacobo - Dale Una Razón
TTITLE5=Los Chunguitos - Tinto De Verano
TTITLE6=Tijeritas - Tú Me Engañas
TTITLE7=Canelita - Mi Canastera
TTITLE8=Sombra Y Luz - Dame De Tu Amor
TTITLE9=La Tobala - Cuéntale Cuéntame
TTITLE10=Currichi - La Baraja
TTITLE11=Calaitos - Pétalos De Abril
TTITLE12=Piel Morena - Ella Me Mira
TTITLE13=Mara - En La Arena
TTITLE14=La Nitra - Te Puedo Hablar De Amor
EXTD=
EXTT0=
EXTT1=
EXTT2=
EXTT3=
EXTT4=
EXTT5=
EXTT6=
EXTT7=
EXTT8=
EXTT9=
EXTT10=
EXTT11=
EXTT12=
EXTT13=
EXTT14=
PLAYORDER=
